<svg id="app" xmlns="http://www.w3.org/2000/svg" width="186.588" height="61.035" viewBox="0 0 186.588 61.035">
  <path id="Path_14042" data-name="Path 14042" d="M283.229,988.611a8.248,8.248,0,0,1-8.246,8.249H104.889a8.249,8.249,0,0,1-8.248-8.249V944.073a8.249,8.249,0,0,1,8.248-8.248H274.983a8.248,8.248,0,0,1,8.246,8.248Z" transform="translate(-96.641 -935.825)"/>
  <g id="Group_4312" data-name="Group 4312" transform="translate(12.516 9.488)">
    <path id="Path_14043" data-name="Path 14043" d="M167.778,1010.895a30.232,30.232,0,0,1-2.732,5.1c-1.775,2.7-4.276,6.066-7.374,6.094-2.754.025-3.461-1.793-7.2-1.772s-4.517,1.8-7.272,1.779c-3.1-.029-5.469-3.067-7.243-5.768-4.962-7.554-5.481-16.419-2.421-21.132a10.981,10.981,0,0,1,8.832-5.31c3.285,0,5.35,1.8,8.065,1.8,2.634,0,4.24-1.8,8.037-1.8a10.718,10.718,0,0,1,8.079,4.266C159.45,998.042,160.6,1008.184,167.778,1010.895Z" transform="translate(-131.637 -980.039)" fill="#fff"/>
    <g id="Group_4311" data-name="Group 4311" transform="translate(17.371)">
      <path id="Path_14044" data-name="Path 14044" d="M186.79,969.183a9.219,9.219,0,0,0,2.047-6.828,9.962,9.962,0,0,0-6.43,3.458,8.558,8.558,0,0,0-2.1,6.661A8.407,8.407,0,0,0,186.79,969.183Z" transform="translate(-180.207 -962.355)" fill="#fff"/>
    </g>
  </g>
  <g id="Group_4315" data-name="Group 4315" transform="translate(56.666 9.579)">
    <g id="Group_4313" data-name="Group 4313" transform="translate(0 14.621)">
      <path id="Path_14045" data-name="Path 14045" d="M262.19,1004.42l-7.108,20.924h3.255l2.122-6.425h6.883l2.182,6.425h3.345l-7.139-20.924Zm1.687,3.44c.24.934.5,1.9.832,2.952l1.916,5.548h-5.452l1.889-5.584C263.349,1009.871,263.622,1008.893,263.877,1007.86Z" transform="translate(-255.082 -1004.087)" fill="#fff"/>
      <path id="Path_14046" data-name="Path 14046" d="M316.069,1019.586a5.923,5.923,0,0,0-5.033,2.415l-.126-2.081h-2.9l.017.266c.085,1.3.121,2.724.121,4.772v16.128h3.166v-7.526a5.559,5.559,0,0,0,4.328,1.859,6.526,6.526,0,0,0,4.8-2.039,8.649,8.649,0,0,0,2.118-6.089,8.421,8.421,0,0,0-1.839-5.56A6.023,6.023,0,0,0,316.069,1019.586Zm-.789,2.621c2.822,0,4.085,2.614,4.085,5.2,0,3.341-1.612,5.417-4.205,5.417a3.838,3.838,0,0,1-3.73-2.938,4.038,4.038,0,0,1-.112-1.025v-2.546a4.769,4.769,0,0,1,.1-.781c.016-.087.033-.173.045-.257A4.009,4.009,0,0,1,315.28,1022.207Z" transform="translate(-289.083 -1013.828)" fill="#fff"/>
      <path id="Path_14047" data-name="Path 14047" d="M361.65,1019.586a5.926,5.926,0,0,0-5.033,2.415l-.126-2.081H353.6l.016.266c.086,1.3.122,2.724.122,4.772v16.128H356.9v-7.526a5.556,5.556,0,0,0,4.326,1.859,6.535,6.535,0,0,0,4.8-2.039,8.659,8.659,0,0,0,2.117-6.089,8.422,8.422,0,0,0-1.84-5.56A6.021,6.021,0,0,0,361.65,1019.586Zm-.788,2.621c2.821,0,4.084,2.614,4.084,5.2,0,3.341-1.613,5.417-4.2,5.417a3.838,3.838,0,0,1-3.73-2.938,4.042,4.042,0,0,1-.112-1.025v-2.546a4.7,4.7,0,0,1,.1-.784c.016-.086.031-.171.046-.254A4.006,4.006,0,0,1,360.862,1022.207Z" transform="translate(-318.363 -1013.828)" fill="#fff"/>
      <path id="Path_14048" data-name="Path 14048" d="M419.682,1012.687c-2.955-1.144-3.9-2.044-3.9-3.706,0-1.4,1.112-2.812,3.6-2.812a7.194,7.194,0,0,1,3.716.933l.268.166.893-2.642-.177-.1a9.175,9.175,0,0,0-4.61-1.034c-4.037,0-6.857,2.383-6.857,5.795,0,2.751,1.766,4.674,5.556,6.052,2.687,1,3.687,2.033,3.687,3.8,0,2-1.543,3.235-4.024,3.235a8.664,8.664,0,0,1-4.563-1.294l-.275-.176-.85,2.7.156.1a10.845,10.845,0,0,0,5.35,1.375c5.441,0,7.37-3.318,7.37-6.158C425.021,1015.99,423.475,1014.184,419.682,1012.687Z" transform="translate(-355.972 -1003.488)" fill="#fff"/>
      <path id="Path_14049" data-name="Path 14049" d="M454.423,1010.439l-3.105.975v2.63h-2.273v2.53h2.273v7.75a5.923,5.923,0,0,0,1.1,4.016,4.058,4.058,0,0,0,3.063,1.2,7.46,7.46,0,0,0,2.447-.378l.177-.063-.152-2.535-.3.093a4.767,4.767,0,0,1-1.472.17c-1.227,0-1.751-.776-1.751-2.6v-7.659h3.819v-2.53h-3.819Z" transform="translate(-379.675 -1007.953)" fill="#fff"/>
      <path id="Path_14050" data-name="Path 14050" d="M483.184,1019.586c-4.43,0-7.522,3.306-7.522,8.037,0,4.59,2.993,7.795,7.28,7.795h.029c3.624,0,7.522-2.524,7.522-8.067a8,8,0,0,0-2.017-5.6A7.044,7.044,0,0,0,483.184,1019.586Zm-.092,2.5c2.848,0,4.144,2.776,4.144,5.357,0,3.173-1.769,5.477-4.2,5.477H483c-2.4,0-4.143-2.265-4.143-5.385C478.859,1024.822,480.168,1022.085,483.093,1022.085Z" transform="translate(-396.772 -1013.828)" fill="#fff"/>
      <path id="Path_14051" data-name="Path 14051" d="M530.091,1019.733l-.19-.048a3.051,3.051,0,0,0-.787-.1,4.516,4.516,0,0,0-3.969,2.549l-.093-2.215h-2.841l.018.266c.084,1.253.119,2.66.119,4.559l-.029,10.342h3.166v-8.068a8.157,8.157,0,0,1,.087-1.227,3.5,3.5,0,0,1,3.331-3.19,8.132,8.132,0,0,1,.849.053l.339.035Z" transform="translate(-426.673 -1013.828)" fill="#fff"/>
      <path id="Path_14052" data-name="Path 14052" d="M551.289,1019.5c-4.214,0-7.158,3.367-7.158,8.189,0,4.643,2.928,7.644,7.461,7.644a12.14,12.14,0,0,0,5.012-.962l.191-.086-.608-2.359-.264.107a9.81,9.81,0,0,1-3.966.709,4.4,4.4,0,0,1-4.742-4.59l10.218.031.041-.2a7.034,7.034,0,0,0,.1-1.321C557.569,1023.359,555.924,1019.5,551.289,1019.5Zm-.211,2.408a3.124,3.124,0,0,1,2.324.887,4.506,4.506,0,0,1,1.09,2.947h-7.22C547.566,1023.916,548.71,1021.91,551.078,1021.91Z" transform="translate(-440.753 -1013.775)" fill="#fff"/>
    </g>
    <g id="Group_4314" data-name="Group 4314">
      <path id="Path_14053" data-name="Path 14053" d="M255.082,964.086a23.074,23.074,0,0,1,3.036-.205,6.776,6.776,0,0,1,4.457,1.22,4.334,4.334,0,0,1,1.568,3.57,5.013,5.013,0,0,1-1.584,3.849,7.346,7.346,0,0,1-4.882,1.426,21.954,21.954,0,0,1-2.6-.118Zm1.437,8.772a10.2,10.2,0,0,0,1.437.059c3.036.014,4.685-1.528,4.685-4.2.016-2.366-1.453-3.82-4.457-3.82a9.025,9.025,0,0,0-1.665.132Z" transform="translate(-255.082 -963.425)" fill="#fff"/>
      <path id="Path_14054" data-name="Path 14054" d="M287.851,978.874a3.569,3.569,0,0,1-3.787-3.658,3.668,3.668,0,0,1,3.918-3.776,3.541,3.541,0,0,1,3.8,3.644,3.681,3.681,0,0,1-3.917,3.791Zm.049-.97a2.53,2.53,0,0,0,2.4-2.777,2.416,2.416,0,1,0-2.417,2.777Z" transform="translate(-273.699 -968.281)" fill="#fff"/>
      <path id="Path_14055" data-name="Path 14055" d="M309.37,971.891l1.061,3.6c.212.793.425,1.543.571,2.277h.049c.18-.72.441-1.484.7-2.262l1.29-3.615h1.208l1.225,3.555c.293.838.522,1.6.7,2.322h.049a19.686,19.686,0,0,1,.6-2.307l1.126-3.57h1.421L316.831,979h-1.306l-1.208-3.394a23.305,23.305,0,0,1-.7-2.351h-.032a19.531,19.531,0,0,1-.719,2.365L311.59,979h-1.306l-2.384-7.111Z" transform="translate(-289.01 -968.571)" fill="#fff"/>
      <path id="Path_14056" data-name="Path 14056" d="M343.894,973.526c0-.749-.016-1.337-.066-1.925H345.1l.081,1.161h.033a2.992,2.992,0,0,1,2.612-1.323,2.7,2.7,0,0,1,2.791,3.026v4.246h-1.436v-4.1c0-1.146-.474-2.115-1.829-2.115a2.049,2.049,0,0,0-1.926,1.322,1.74,1.74,0,0,0-.1.6v4.29h-1.436Z" transform="translate(-312.088 -968.281)" fill="#fff"/>
      <path id="Path_14057" data-name="Path 14057" d="M369.346,962.607h1.437v10.432h-1.437Z" transform="translate(-328.48 -962.607)" fill="#fff"/>
      <path id="Path_14058" data-name="Path 14058" d="M382.219,978.874a3.569,3.569,0,0,1-3.787-3.658,3.668,3.668,0,0,1,3.918-3.776,3.541,3.541,0,0,1,3.8,3.644,3.682,3.682,0,0,1-3.918,3.791Zm.048-.97a2.53,2.53,0,0,0,2.4-2.777,2.416,2.416,0,1,0-2.416,2.777Z" transform="translate(-334.316 -968.281)" fill="#fff"/>
      <path id="Path_14059" data-name="Path 14059" d="M409.544,977.009a10.716,10.716,0,0,0,.115,1.7h-1.29l-.131-.9h-.048a3.038,3.038,0,0,1-2.416,1.057,2.154,2.154,0,0,1-2.416-2.042c0-1.719,1.7-2.659,4.75-2.645v-.147c0-.588-.179-1.66-1.8-1.646a4.123,4.123,0,0,0-2.073.529l-.327-.867a5.564,5.564,0,0,1,2.613-.617c2.432,0,3.02,1.484,3.02,2.909Zm-1.4-1.925c-1.567-.029-3.347.22-3.347,1.6a1.2,1.2,0,0,0,1.339,1.235,1.992,1.992,0,0,0,1.942-1.191,1.187,1.187,0,0,0,.066-.411Z" transform="translate(-350.327 -968.281)" fill="#fff"/>
      <path id="Path_14060" data-name="Path 14060" d="M432.891,962.607v8.6c0,.632.018,1.352.065,1.836h-1.289L431.6,971.8h-.033a2.956,2.956,0,0,1-2.677,1.4,3.391,3.391,0,0,1-3.4-3.615,3.545,3.545,0,0,1,3.543-3.82,2.717,2.717,0,0,1,2.384,1.073h.032v-4.232Zm-1.436,6.215a2.152,2.152,0,0,0-.065-.558,2.077,2.077,0,0,0-2.073-1.484c-1.486,0-2.368,1.175-2.368,2.733a2.359,2.359,0,0,0,2.335,2.644,2.138,2.138,0,0,0,2.106-1.543,2.014,2.014,0,0,0,.065-.558Z" transform="translate(-364.548 -962.607)" fill="#fff"/>
      <path id="Path_14061" data-name="Path 14061" d="M464.708,978.874a3.57,3.57,0,0,1-3.787-3.658,3.669,3.669,0,0,1,3.918-3.776,3.541,3.541,0,0,1,3.8,3.644,3.682,3.682,0,0,1-3.917,3.791Zm.049-.97a2.53,2.53,0,0,0,2.4-2.777,2.415,2.415,0,1,0-2.416,2.777Z" transform="translate(-387.303 -968.281)" fill="#fff"/>
      <path id="Path_14062" data-name="Path 14062" d="M487.464,973.526c0-.749-.017-1.337-.066-1.925h1.274l.082,1.161h.032a2.992,2.992,0,0,1,2.612-1.323,2.7,2.7,0,0,1,2.792,3.026v4.246h-1.437v-4.1c0-1.146-.473-2.115-1.829-2.115A2.052,2.052,0,0,0,489,973.82a1.749,1.749,0,0,0-.1.6v4.29h-1.436Z" transform="translate(-404.311 -968.281)" fill="#fff"/>
      <path id="Path_14063" data-name="Path 14063" d="M522.713,967.127v1.7h2.057v.984h-2.057v3.835c0,.881.278,1.381,1.078,1.381a2.953,2.953,0,0,0,.833-.088l.065.984a4.319,4.319,0,0,1-1.274.177,2.176,2.176,0,0,1-1.551-.544,2.582,2.582,0,0,1-.555-1.867v-3.879h-1.225v-.984h1.225v-1.308Z" transform="translate(-425.307 -965.51)" fill="#fff"/>
      <path id="Path_14064" data-name="Path 14064" d="M537.705,962.607h1.436v4.437h.033a2.439,2.439,0,0,1,1.029-.911,3.031,3.031,0,0,1,1.469-.367,2.7,2.7,0,0,1,2.759,3.041v4.231h-1.436v-4.084c0-1.161-.474-2.116-1.829-2.116a2.065,2.065,0,0,0-1.927,1.293,1.424,1.424,0,0,0-.1.617v4.29h-1.436Z" transform="translate(-436.625 -962.607)" fill="#fff"/>
      <path id="Path_14065" data-name="Path 14065" d="M562.83,975.35a2.408,2.408,0,0,0,2.694,2.469,5.991,5.991,0,0,0,2.189-.353l.261.911a7.065,7.065,0,0,1-2.645.456c-2.417,0-3.886-1.455-3.886-3.585a3.62,3.62,0,0,1,3.722-3.85,3.113,3.113,0,0,1,3.249,3.35,2.986,2.986,0,0,1-.048.617Zm4.2-.926a1.908,1.908,0,0,0-1.976-2.1,2.236,2.236,0,0,0-2.2,2.1Z" transform="translate(-451.874 -968.254)" fill="#fff"/>
    </g>
  </g>
</svg>
