<svg xmlns="http://www.w3.org/2000/svg" width="56" height="56" viewBox="0 0 56 56">
  <g id="archive" transform="translate(0 -5)">
    <circle id="Ellipse_2" data-name="Ellipse 2" cx="28" cy="28" r="28" transform="translate(0 5)" fill="#f1e6fe"/>
    <g id="archive-2" data-name="archive" transform="translate(16.431 21.764)">
      <path id="Combo_shape" data-name="Combo shape" d="M21.125,4.694V11.28a5.3,5.3,0,0,0-1.174-.131H18.778a4.108,4.108,0,0,0-3.286,1.643L14.083,14.67a2.934,2.934,0,0,1-4.694,0L7.98,12.792a4.108,4.108,0,0,0-3.286-1.643H3.521a5.3,5.3,0,0,0-1.174.131V4.694A4.694,4.694,0,0,1,7.042,0H16.43A4.694,4.694,0,0,1,21.125,4.694ZM8.215,8.509a.88.88,0,0,0,0,1.76h3.521a.88.88,0,0,0,0-1.76Zm-.88-3.814a.88.88,0,0,1,.88-.88h7.042a.88.88,0,1,1,0,1.76H8.215A.88.88,0,0,1,7.335,4.694ZM23.472,16.43v3.521a3.521,3.521,0,0,1-3.521,3.521H3.521A3.521,3.521,0,0,1,0,19.951V16.43A3.521,3.521,0,0,1,3.521,12.91H4.694a2.347,2.347,0,0,1,1.878.939L7.98,15.726a4.694,4.694,0,0,0,7.511,0L16.9,13.848a2.347,2.347,0,0,1,1.878-.939h1.174A3.521,3.521,0,0,1,23.472,16.43Z" fill="#872cf9" stroke="rgba(0,0,0,0)" stroke-width="1" fill-rule="evenodd"/>
    </g>
  </g>
</svg>
