<svg xmlns="http://www.w3.org/2000/svg" width="17.495" height="19.5" viewBox="0 0 17.495 19.5">
  <g id="bell" transform="translate(0)">
    <path id="Vector" d="M1.2,11.63l-.572-.486h0Zm.879-2.042L1.337,9.5Zm13.33,0,.745-.084h0Zm.879,2.042.572-.486h0ZM15.068,6.544l-.745.084h0Zm-12.641,0,.745.084ZM12.45,17.013a.75.75,0,0,0-1.4-.526Zm-6-.526a.75.75,0,1,0-1.4.526ZM14.917,14H2.577v1.5h12.34Zm-.595-7.372.345,3.044L16.158,9.5,15.813,6.46ZM2.827,9.673l.345-3.044L1.682,6.46,1.337,9.5ZM1.774,12.116A4.567,4.567,0,0,0,2.827,9.673L1.337,9.5a3.067,3.067,0,0,1-.706,1.64ZM14.667,9.673a4.568,4.568,0,0,0,1.053,2.443l1.143-.971a3.066,3.066,0,0,1-.706-1.64ZM2.577,14a1.138,1.138,0,0,1-.8-1.884L.631,11.144A2.637,2.637,0,0,0,2.577,15.5Zm12.34,1.5a2.637,2.637,0,0,0,1.946-4.356l-1.143.971a1.138,1.138,0,0,1-.8,1.884Zm.9-9.04A7.183,7.183,0,0,0,8.747,0V1.5a5.683,5.683,0,0,1,5.575,5.128ZM3.172,6.628A5.683,5.683,0,0,1,8.747,1.5V0A7.183,7.183,0,0,0,1.682,6.46Zm7.873,9.858A2.427,2.427,0,0,1,8.747,18v1.5a3.925,3.925,0,0,0,3.7-2.487ZM8.747,18a2.427,2.427,0,0,1-2.3-1.513l-1.4.526a3.925,3.925,0,0,0,3.7,2.487Z" fill="#fff"/>
  </g>
</svg>
