<svg id="date" xmlns="http://www.w3.org/2000/svg" width="19.5" height="21.5" viewBox="0 0 19.5 21.5">
  <path id="Vector" d="M5.75,7a.75.75,0,0,0,0,1.5Zm4,1.5a.75.75,0,0,0,0-1.5Zm-4,2.5a.75.75,0,0,0,0,1.5Zm8,1.5a.75.75,0,0,0,0-1.5Zm-8,2.5a.75.75,0,0,0,0,1.5Zm8,1.5a.75.75,0,0,0,0-1.5ZM14.5.75a.75.75,0,0,0-1.5,0Zm-1.5,3a.75.75,0,0,0,1.5,0ZM6.5.75A.75.75,0,0,0,5,.75ZM5,3.75a.75.75,0,0,0,1.5,0ZM4.75,3h10V1.5h-10ZM18,6.25v10.5h1.5V6.25ZM14.75,20h-10v1.5h10ZM1.5,16.75V6.25H0v10.5ZM4.75,20A3.25,3.25,0,0,1,1.5,16.75H0A4.75,4.75,0,0,0,4.75,21.5ZM18,16.75A3.25,3.25,0,0,1,14.75,20v1.5a4.75,4.75,0,0,0,4.75-4.75ZM14.75,3A3.25,3.25,0,0,1,18,6.25h1.5A4.75,4.75,0,0,0,14.75,1.5Zm-10-1.5A4.75,4.75,0,0,0,0,6.25H1.5A3.25,3.25,0,0,1,4.75,3Zm1,7h4V7h-4Zm0,4h8V11h-8Zm0,4h8V15h-8ZM13,.75v3h1.5v-3Zm-8,0v3H6.5v-3Z" fill="#28303f"/>
</svg>
