<svg id="email_icon" xmlns="http://www.w3.org/2000/svg" width="21.5" height="19.5" viewBox="0 0 21.5 19.5">
  <path id="Vector" d="M5.166,5.126a.75.75,0,1,0-.832,1.248ZM8.531,8.271l.416-.624h0Zm4.438,0-.416-.624h0Zm4.2-1.9a.75.75,0,0,0-.832-1.248ZM4.75,1.5h12V0h-12ZM20,4.75v10h1.5v-10ZM16.75,18h-12v1.5h12ZM1.5,14.75v-10H0v10ZM4.75,18A3.25,3.25,0,0,1,1.5,14.75H0A4.75,4.75,0,0,0,4.75,19.5ZM20,14.75A3.25,3.25,0,0,1,16.75,18v1.5a4.75,4.75,0,0,0,4.75-4.75ZM16.75,1.5A3.25,3.25,0,0,1,20,4.75h1.5A4.75,4.75,0,0,0,16.75,0ZM4.75,0A4.75,4.75,0,0,0,0,4.75H1.5A3.25,3.25,0,0,1,4.75,1.5ZM4.334,6.374,8.115,8.895l.832-1.248L5.166,5.126Zm9.051,2.521,3.781-2.521-.832-1.248L12.553,7.647Zm-5.27,0a4.75,4.75,0,0,0,5.27,0l-.832-1.248a3.25,3.25,0,0,1-3.606,0Z" fill="#28303f"/>
</svg>
