<svg id="google" xmlns="http://www.w3.org/2000/svg" xmlns:xlink="http://www.w3.org/1999/xlink" width="186.588" height="61.036" viewBox="0 0 186.588 61.036">
  <defs>
    <clipPath id="clip-path">
      <path id="Path_14071" data-name="Path 14071" d="M161.446,344.52l-8.413-4.858-16.228-9.37c-.9-.52-1.8-.205-1.8.882v38.176c0,.815.642,1.166,1.425.715l16.6-9.587,8.413-4.857,8.087-4.668c.949-.548.858-1.3.057-1.731S161.446,344.52,161.446,344.52Z" transform="translate(-135.006 -330.047)" fill="none"/>
    </clipPath>
    <linearGradient id="linear-gradient" x1="0.5" x2="0.5" y2="1" gradientUnits="objectBoundingBox">
      <stop offset="0" stop-color="#006aa2"/>
      <stop offset="0.345" stop-color="#2f8da6"/>
      <stop offset="0.786" stop-color="#66b6ac"/>
      <stop offset="1" stop-color="#7cc6af"/>
    </linearGradient>
    <linearGradient id="linear-gradient-2" y1="0.5" x2="1" y2="0.5" gradientUnits="objectBoundingBox">
      <stop offset="0" stop-color="#4ab59d"/>
      <stop offset="1" stop-color="#dfe385"/>
    </linearGradient>
    <linearGradient id="linear-gradient-3" x1="0.5" x2="0.5" y2="1" gradientUnits="objectBoundingBox">
      <stop offset="0" stop-color="#e4282d"/>
      <stop offset="0.316" stop-color="#ba2d4e"/>
      <stop offset="0.777" stop-color="#83357b"/>
      <stop offset="1" stop-color="#6e388d"/>
    </linearGradient>
    <linearGradient id="linear-gradient-4" x1="0.5" x2="0.5" y2="1" gradientUnits="objectBoundingBox">
      <stop offset="0" stop-color="#f07165"/>
      <stop offset="0.659" stop-color="#faa460"/>
      <stop offset="1" stop-color="#ffba5e"/>
    </linearGradient>
  </defs>
  <path id="Path_14066" data-name="Path 14066" d="M283.229,348.86a8.248,8.248,0,0,1-8.246,8.249H104.889a8.25,8.25,0,0,1-8.248-8.249V304.323a8.249,8.249,0,0,1,8.248-8.249H274.983a8.248,8.248,0,0,1,8.246,8.249Z" transform="translate(-96.641 -296.074)" fill="#1a1818"/>
  <g id="PLAY" transform="translate(13.996 12.394)">
    <g id="Group_4317" data-name="Group 4317" clip-path="url(#clip-path)">
      <path id="Path_14067" data-name="Path 14067" d="M135.006,328.285v41.333l20.842-20.666Z" transform="translate(-135.006 -328.928)" fill="url(#linear-gradient)"/>
      <path id="Path_14068" data-name="Path 14068" d="M161.446,343.139l-8.413-4.857-18.027-10.409v.15l20.842,20.667Z" transform="translate(-135.006 -328.666)" fill="url(#linear-gradient-2)"/>
      <path id="Path_14069" data-name="Path 14069" d="M135.006,405.6v.15l18.027-10.409,8.413-4.857-5.6-5.55Z" transform="translate(-135.006 -364.914)" fill="url(#linear-gradient-3)"/>
      <path id="Path_14070" data-name="Path 14070" d="M197.738,369.721l-5.6,5.551,5.6,5.55,9.615-5.551Z" transform="translate(-171.297 -355.248)" fill="url(#linear-gradient-4)"/>
    </g>
  </g>
  <g id="Group_4318" data-name="Group 4318" transform="translate(139.619 23.212)">
    <path id="Path_14072" data-name="Path 14072" d="M484.961,385.391a5.2,5.2,0,0,1-2.144-.433,4.041,4.041,0,0,1-1.629-1.332h-.131a16.155,16.155,0,0,1,.131,2v4.946h-1.82V373.151h1.48l.252,1.645h.088a4.232,4.232,0,0,1,1.635-1.426,4.965,4.965,0,0,1,2.138-.439,4.443,4.443,0,0,1,3.691,1.634,8.7,8.7,0,0,1-.021,9.186A4.454,4.454,0,0,1,484.961,385.391Zm-.263-10.913a3.226,3.226,0,0,0-2.664,1.02,5.252,5.252,0,0,0-.845,3.247v.406a6.014,6.014,0,0,0,.845,3.625,3.212,3.212,0,0,0,2.709,1.091,2.818,2.818,0,0,0,2.441-1.261,5.984,5.984,0,0,0,.882-3.477,5.76,5.76,0,0,0-.882-3.449A2.906,2.906,0,0,0,484.7,374.478Z" transform="translate(-479.368 -368.106)" fill="#f9f9f9"/>
    <path id="Path_14073" data-name="Path 14073" d="M516.765,376.768h-1.821V359.7h1.821Z" transform="translate(-501.966 -359.703)" fill="#f9f9f9"/>
    <path id="Path_14074" data-name="Path 14074" d="M534.189,385.21l-.362-1.711h-.088a5.044,5.044,0,0,1-1.794,1.53,5.447,5.447,0,0,1-2.232.4,4.016,4.016,0,0,1-2.8-.921,3.359,3.359,0,0,1-1.015-2.621q0-3.641,5.824-3.817l2.041-.066v-.745a3.044,3.044,0,0,0-.609-2.089,2.5,2.5,0,0,0-1.947-.675,7.927,7.927,0,0,0-3.4.922l-.56-1.393a8.553,8.553,0,0,1,1.947-.757,8.429,8.429,0,0,1,2.122-.274,4.579,4.579,0,0,1,3.186.954,3.986,3.986,0,0,1,1.036,3.06v8.2Zm-4.113-1.283a3.7,3.7,0,0,0,2.671-.932,3.451,3.451,0,0,0,.971-2.611V379.3l-1.821.076a6.622,6.622,0,0,0-3.131.676,2.034,2.034,0,0,0-.959,1.859,1.873,1.873,0,0,0,.6,1.5A2.478,2.478,0,0,0,530.076,383.927Z" transform="translate(-508.923 -368.144)" fill="#f9f9f9"/>
    <path id="Path_14075" data-name="Path 14075" d="M555.222,373.533h1.951l2.632,6.855a26.194,26.194,0,0,1,1.075,3.389h.088q.142-.56.6-1.915t2.978-8.329H566.5l-5.166,13.688a6.828,6.828,0,0,1-1.794,2.88,3.814,3.814,0,0,1-2.516.849,7.362,7.362,0,0,1-1.646-.186v-1.458a6.36,6.36,0,0,0,1.349.132,2.781,2.781,0,0,0,2.676-2.106l.669-1.711Z" transform="translate(-527.55 -368.488)" fill="#f9f9f9"/>
  </g>
  <g id="Group_4320" data-name="Group 4320" transform="translate(56.622 21.868)">
    <path id="Path_14076" data-name="Path 14076" d="M385.921,375.018a4.238,4.238,0,0,1,1.785,3.394c0,1.859-1.056,2.741-2.112,3.57a1.769,1.769,0,0,0-.7,1.233,1.379,1.379,0,0,0,.654,1.081l.905.7c1.106.931,2.111,1.786,2.111,3.521,0,2.363-2.288,4.751-6.612,4.751-3.646,0-5.405-1.734-5.405-3.6a3.618,3.618,0,0,1,1.936-3.067,10.837,10.837,0,0,1,4.8-1.157,2.631,2.631,0,0,1-.755-1.708,2.268,2.268,0,0,1,.252-.982c-.278.026-.554.051-.805.051a3.975,3.975,0,0,1-4.173-3.946,4.523,4.523,0,0,1,1.608-3.369,6.857,6.857,0,0,1,4.5-1.383h5.178l-1.609.905Zm-1.786,11.164a3.9,3.9,0,0,0-.577-.026,10.059,10.059,0,0,0-2.64.4,2.824,2.824,0,0,0-2.163,2.589c0,1.784,1.736,3.068,4.426,3.068,2.412,0,3.7-1.159,3.7-2.716C386.877,388.216,386.047,387.54,384.135,386.182Zm.73-4.777a2.543,2.543,0,0,0,.627-1.836c0-1.81-1.081-4.625-3.166-4.625a2.348,2.348,0,0,0-1.761.83,2.9,2.9,0,0,0-.553,1.861c0,1.684.981,4.475,3.144,4.475A2.574,2.574,0,0,0,384.865,381.4Z" transform="translate(-331.057 -367.512)" fill="#f9f9f9"/>
    <path id="Path_14077" data-name="Path 14077" d="M348.2,385.158a5.924,5.924,0,0,1-6.124-5.925,6.22,6.22,0,0,1,6.5-6.1,5.868,5.868,0,0,1,6,5.924A6.133,6.133,0,0,1,348.2,385.158Zm3.137-2.033a4.541,4.541,0,0,0,.754-2.787c0-2.21-1.054-6.426-4.167-6.426a3.5,3.5,0,0,0-2.258.855,3.8,3.8,0,0,0-1.156,3.063c0,2.483,1.23,6.573,4.268,6.573A3.206,3.206,0,0,0,351.335,383.125Z" transform="translate(-309.162 -366.891)" fill="#f9f9f9"/>
    <path id="Path_14078" data-name="Path 14078" d="M310.9,385.158a5.924,5.924,0,0,1-6.125-5.925,6.22,6.22,0,0,1,6.5-6.1,5.868,5.868,0,0,1,6,5.924A6.133,6.133,0,0,1,310.9,385.158Zm3.138-2.033a4.547,4.547,0,0,0,.753-2.787c0-2.21-1.055-6.426-4.168-6.426a3.5,3.5,0,0,0-2.259.855,3.8,3.8,0,0,0-1.155,3.063c0,2.483,1.229,6.573,4.268,6.573A3.208,3.208,0,0,0,314.039,383.125Z" transform="translate(-285.471 -366.891)" fill="#f9f9f9"/>
    <path id="Path_14079" data-name="Path 14079" d="M269.243,374.872l-3.609.833a26.752,26.752,0,0,1-4.163.428c-6.966,0-9.615-5.123-9.615-9.136,0-4.9,3.76-9.437,10.2-9.437a14.526,14.526,0,0,1,3.86.53,9.84,9.84,0,0,1,3.331,1.565l-2.1,1.994-.883.2.631-1.009a7.213,7.213,0,0,0-5.4-2.371c-3.988,0-6.991,3.03-6.991,7.446a8.925,8.925,0,0,0,8.933,9.21,7.516,7.516,0,0,0,3.206-.631V370.43l-3.81.2,2.018-1.086h5.35l-.655.631a.589.589,0,0,0-.253.4c-.026.228-.05.96-.05,1.212Z" transform="translate(-251.856 -356.998)" fill="#f9f9f9"/>
    <path id="Path_14080" data-name="Path 14080" d="M414.781,373.166c-.833-.076-1.008-.227-1.008-1.212V357.671c.005-.054.009-.11.014-.163.1-.883.353-1.034,1.137-1.489h-3.61l-1.893.909h1.929V372.51c0,.5-.1.58-.681,1.337h4.467l.933-.554C415.641,373.241,415.211,373.216,414.781,373.166Z" transform="translate(-351.941 -356.019)" fill="#f9f9f9"/>
    <path id="Path_14081" data-name="Path 14081" d="M436.337,384.283c-.275.151-.55.327-.825.451a5.837,5.837,0,0,1-2.434.476,5.356,5.356,0,0,1-3.334-.978,6.486,6.486,0,0,1-2.555-5.289,5.68,5.68,0,0,1,5.739-5.789,4.871,4.871,0,0,1,2.583.7,4.149,4.149,0,0,1,1.752,2.48l-5.888,2.382-1.93.15c.626,3.183,2.781,5.036,5.163,5.036a6.476,6.476,0,0,0,3.057-.875Zm-2.355-7.469c.475-.175.726-.326.726-.676a2.487,2.487,0,0,0-2.482-2.155c-1,0-2.882.777-2.882,3.483,0,.426.05.877.076,1.329Z" transform="translate(-363.228 -366.904)" fill="#f9f9f9"/>
    <g id="Group_4319" data-name="Group 4319" transform="translate(74.78 6.252)">
      <path id="Path_14082" data-name="Path 14082" d="M457.594,373.327v1.654h-.2v-1.654h-.547v-.171h1.295v.171Z" transform="translate(-456.846 -373.156)" fill="#f9f9f9"/>
      <path id="Path_14083" data-name="Path 14083" d="M462.676,374.981v-1.669h-.009l-.51,1.669H462l-.514-1.669h-.006v1.669H461.3v-1.825h.313l.465,1.475h.006l.458-1.475h.317v1.825Z" transform="translate(-459.674 -373.156)" fill="#f9f9f9"/>
    </g>
  </g>
  <g id="Group_4321" data-name="Group 4321" transform="translate(56.665 12.296)">
    <path id="Path_14084" data-name="Path 14084" d="M256.943,335.205h-1.254a8.32,8.32,0,0,0-.357-1.466h-1.81a7.574,7.574,0,0,0-.368,1.466h-1.179q0-.153.915-2.508a19.728,19.728,0,0,0,.915-2.594h1.481a21.661,21.661,0,0,0,.829,2.556A22.389,22.389,0,0,1,256.943,335.205Zm-1.81-2.214a22.173,22.173,0,0,1-.67-2.187H254.4a22.94,22.94,0,0,1-.693,2.187Z" transform="translate(-251.974 -329.985)" fill="#f7f8f8"/>
    <path id="Path_14085" data-name="Path 14085" d="M272.125,335.205h-.968a9.539,9.539,0,0,0-1.078-1.7,9.346,9.346,0,0,1-1.285-2.214h-.063a13.813,13.813,0,0,1,.1,1.552q0,.968.055,2.359h-.964q.059-1.215.059-2.669,0-1.43-.059-2.433h1.164a7.374,7.374,0,0,0,.968,1.657,9.76,9.76,0,0,1,1.183,2.089h.059a14.869,14.869,0,0,1-.094-1.568q0-1.062-.055-2.179h.98q-.055.972-.055,2.433T272.125,335.205Z" transform="translate(-262.103 -329.985)" fill="#f7f8f8"/>
    <path id="Path_14086" data-name="Path 14086" d="M287.511,332.436a2.89,2.89,0,0,1-.714,1.944,2.491,2.491,0,0,1-2,.831q-.58,0-1.6-.047.051-1.184.051-2.669,0-1.426-.051-2.433h.686q.169,0,.5-.012t.435-.012a2.642,2.642,0,0,1,2.052.706A2.438,2.438,0,0,1,287.511,332.436Zm-1.07.169a1.888,1.888,0,0,0-.439-1.268,1.663,1.663,0,0,0-1.34-.515,4.156,4.156,0,0,0-.463.035q.039.784.039,1.638,0,.937.039,1.858a2.6,2.6,0,0,0,.51.051,1.481,1.481,0,0,0,1.248-.523A2.019,2.019,0,0,0,286.441,332.6Z" transform="translate(-271.809 -329.944)" fill="#f7f8f8"/>
    <path id="Path_14087" data-name="Path 14087" d="M302.181,335.164h-1.16a7.7,7.7,0,0,0-.7-1.712.913.913,0,0,0-.784-.325c-.152,0-.3,0-.435,0q0,1.007.035,2.034h-1.089q.051-1.184.051-2.669,0-1.426-.051-2.433h.678q.118,0,.492-.012t.692-.012q1.8,0,1.8,1.23a1.381,1.381,0,0,1-1.027,1.36v.059a1.224,1.224,0,0,1,.694.617A13.628,13.628,0,0,1,302.181,335.164Zm-1.469-3.605q0-.78-1-.78a3.416,3.416,0,0,0-.651.055q.043.607.043,1.583.215.008.364.008Q300.712,332.425,300.712,331.558Z" transform="translate(-281.242 -329.944)" fill="#f7f8f8"/>
    <path id="Path_14088" data-name="Path 14088" d="M316.085,332.355a2.815,2.815,0,0,1-.737,1.995,2.391,2.391,0,0,1-1.822.792,2.3,2.3,0,0,1-1.732-.727,2.559,2.559,0,0,1-.7-1.847,2.813,2.813,0,0,1,.737-1.995,2.39,2.39,0,0,1,1.822-.792,2.305,2.305,0,0,1,1.732.725A2.558,2.558,0,0,1,316.085,332.355Zm-1.081.113a2.023,2.023,0,0,0-.42-1.328,1.291,1.291,0,0,0-1.035-.51,1.2,1.2,0,0,0-.972.514,2.048,2.048,0,0,0-.4,1.3,2.018,2.018,0,0,0,.421,1.326,1.291,1.291,0,0,0,1.033.511,1.193,1.193,0,0,0,.972-.515A2.05,2.05,0,0,0,315,332.468Z" transform="translate(-289.529 -329.78)" fill="#f7f8f8"/>
    <path id="Path_14089" data-name="Path 14089" d="M328.914,335.205H327.8q.051-1.215.051-2.669,0-1.43-.051-2.433h1.109q-.051.987-.051,2.433Q328.863,334.014,328.914,335.205Z" transform="translate(-300.142 -329.985)" fill="#f7f8f8"/>
    <path id="Path_14090" data-name="Path 14090" d="M338.909,332.436a2.89,2.89,0,0,1-.713,1.944,2.491,2.491,0,0,1-2,.831q-.58,0-1.6-.047.051-1.184.051-2.669,0-1.426-.051-2.433h.686q.169,0,.5-.012t.435-.012a2.642,2.642,0,0,1,2.052.706A2.44,2.44,0,0,1,338.909,332.436Zm-1.07.169a1.89,1.89,0,0,0-.439-1.268,1.664,1.664,0,0,0-1.34-.515,4.15,4.15,0,0,0-.463.035q.039.784.039,1.638,0,.937.039,1.858a2.6,2.6,0,0,0,.51.051,1.481,1.481,0,0,0,1.248-.523A2.019,2.019,0,0,0,337.84,332.6Z" transform="translate(-304.457 -329.944)" fill="#f7f8f8"/>
    <path id="Path_14091" data-name="Path 14091" d="M358.419,335.205h-1.254a8.266,8.266,0,0,0-.357-1.466H355a7.561,7.561,0,0,0-.368,1.466H353.45q0-.153.915-2.508a19.69,19.69,0,0,0,.915-2.594h1.481a21.616,21.616,0,0,0,.829,2.556A22.482,22.482,0,0,1,358.419,335.205Zm-1.81-2.214a22.245,22.245,0,0,1-.671-2.187h-.062q0,.153-.693,2.187Z" transform="translate(-316.432 -329.985)" fill="#f7f8f8"/>
    <path id="Path_14092" data-name="Path 14092" d="M373.119,331.4a1.528,1.528,0,0,1-.7,1.383,3.094,3.094,0,0,1-1.706.447q-.184,0-.263-.008,0,.737.043,1.944h-1.1q.051-1.132.051-2.669,0-1.411-.051-2.433h.682q.144,0,.556-.012t.713-.012a2.243,2.243,0,0,1,1.258.337A1.14,1.14,0,0,1,373.119,331.4Zm-1.011.215q0-.838-1.113-.838a3.13,3.13,0,0,0-.588.059q.043.74.043,1.677.1.008.227.008Q372.108,332.519,372.108,331.613Z" transform="translate(-326.56 -329.944)" fill="#f7f8f8"/>
    <path id="Path_14093" data-name="Path 14093" d="M386,331.4a1.528,1.528,0,0,1-.7,1.383,3.1,3.1,0,0,1-1.707.447c-.123,0-.21,0-.262-.008q0,.737.043,1.944h-1.1q.051-1.132.051-2.669,0-1.411-.051-2.433h.682q.145,0,.557-.012t.713-.012a2.243,2.243,0,0,1,1.258.337A1.14,1.14,0,0,1,386,331.4Zm-1.011.215q0-.838-1.113-.838a3.13,3.13,0,0,0-.588.059q.043.74.043,1.677.1.008.227.008Q384.992,332.519,384.992,331.613Z" transform="translate(-334.744 -329.944)" fill="#f7f8f8"/>
    <path id="Path_14094" data-name="Path 14094" d="M404.864,332.355a2.813,2.813,0,0,1-.737,1.995,2.39,2.39,0,0,1-1.822.792,2.3,2.3,0,0,1-1.732-.727,2.56,2.56,0,0,1-.7-1.847,2.814,2.814,0,0,1,.737-1.995,2.391,2.391,0,0,1,1.823-.792,2.306,2.306,0,0,1,1.732.725A2.559,2.559,0,0,1,404.864,332.355Zm-1.082.113a2.021,2.021,0,0,0-.419-1.328,1.29,1.29,0,0,0-1.034-.51,1.2,1.2,0,0,0-.972.514,2.048,2.048,0,0,0-.4,1.3,2.018,2.018,0,0,0,.421,1.326,1.29,1.29,0,0,0,1.032.511,1.192,1.192,0,0,0,.972-.515A2.048,2.048,0,0,0,403.782,332.468Z" transform="translate(-345.921 -329.78)" fill="#f7f8f8"/>
    <path id="Path_14095" data-name="Path 14095" d="M420.789,335.205h-.968a9.539,9.539,0,0,0-1.078-1.7,9.354,9.354,0,0,1-1.286-2.214H417.4a13.893,13.893,0,0,1,.1,1.552q0,.968.055,2.359h-.964q.059-1.215.059-2.669,0-1.43-.059-2.433h1.164a7.383,7.383,0,0,0,.968,1.657,9.758,9.758,0,0,1,1.183,2.089h.059a14.787,14.787,0,0,1-.094-1.568q0-1.062-.055-2.179h.979q-.055.972-.055,2.433T420.789,335.205Z" transform="translate(-356.534 -329.985)" fill="#f7f8f8"/>
  </g>
</svg>
