<svg id="icon_coupon" xmlns="http://www.w3.org/2000/svg" width="21.5" height="19.5" viewBox="0 0 21.5 19.5">
  <path id="Vector" d="M19.768,12.586l-.245.709h0Zm0-5.671.245.709h0ZM1.732,12.586l.245.709h0Zm0-5.671-.245.709h0ZM4.75,18A3.25,3.25,0,0,1,1.5,14.75H0A4.75,4.75,0,0,0,4.75,19.5ZM20,14.75A3.25,3.25,0,0,1,16.75,18v1.5a4.75,4.75,0,0,0,4.75-4.75ZM16.75,1.5A3.25,3.25,0,0,1,20,4.75h1.5A4.75,4.75,0,0,0,16.75,0ZM4.75,0A4.75,4.75,0,0,0,0,4.75H1.5A3.25,3.25,0,0,1,4.75,1.5ZM20.014,11.877A2.251,2.251,0,0,1,18.5,9.75H17a3.751,3.751,0,0,0,2.523,3.544ZM18.5,9.75a2.251,2.251,0,0,1,1.514-2.127l-.491-1.417A3.751,3.751,0,0,0,17,9.75ZM3,9.75a2.251,2.251,0,0,1-1.513,2.127l.491,1.417A3.751,3.751,0,0,0,4.5,9.75ZM1.487,7.623A2.251,2.251,0,0,1,3,9.75H4.5A3.751,3.751,0,0,0,1.977,6.206ZM21.5,5.75v-1H20v1Zm-1.5,8v1h1.5v-1Zm-20,0v1H1.5v-1Zm1.5-8v-1H0v1ZM16.75,18h-12v1.5h12Zm0-18h-12V1.5h12ZM1.487,11.877A2.074,2.074,0,0,0,0,13.75H1.5a.326.326,0,0,1,.1-.219.92.92,0,0,1,.376-.237ZM20.014,7.623A2.074,2.074,0,0,0,21.5,5.75H20a.327.327,0,0,1-.1.219.921.921,0,0,1-.376.237ZM1.977,6.206A.921.921,0,0,1,1.6,5.969a.327.327,0,0,1-.1-.219H0A2.074,2.074,0,0,0,1.487,7.623Zm17.545,7.089a.92.92,0,0,1,.376.237.326.326,0,0,1,.1.219h1.5a2.074,2.074,0,0,0-1.486-1.873Z" fill="#28303f"/>
  <path id="Ellipse_679" data-name="Ellipse 679" d="M2,1A1,1,0,1,1,1,0,1,1,0,0,1,2,1Z" transform="translate(6.75 5.75)" fill="#28303f"/>
  <path id="Ellipse_680" data-name="Ellipse 680" d="M2,1A1,1,0,1,1,1,0,1,1,0,0,1,2,1Z" transform="translate(12.75 11.75)" fill="#28303f"/>
  <path id="Vector_2965" data-name="Vector 2965" d="M7.28,1.28A.75.75,0,0,0,6.22.22ZM.22,6.22A.75.75,0,0,0,1.28,7.28Zm6-6-6,6L1.28,7.28l6-6Z" transform="translate(7 6)" fill="#28303f"/>
</svg>
