<svg xmlns="http://www.w3.org/2000/svg" width="19.5" height="21.5" viewBox="0 0 19.5 21.5">
  <g id="icon_home" transform="translate(0 0)">
    <path id="icon_home-2" data-name="icon_home" d="M2.22,5.777,1.743,5.2h0Zm5-4.117L6.743,1.08h0Zm5.06,0-.477.579h0Zm5,4.117-.477.579h0ZM18,8.9v7.816h1.5V8.9ZM14.75,20h-10v1.5h10ZM1.5,16.717V8.9H0v7.816ZM2.7,6.356l5-4.117L6.743,1.08l-5,4.117ZM11.8,2.238l5,4.117L17.757,5.2l-5-4.117Zm-4.107,0a3.225,3.225,0,0,1,4.107,0l.953-1.158a4.725,4.725,0,0,0-6.014,0ZM4.75,20A3.267,3.267,0,0,1,1.5,16.717H0A4.767,4.767,0,0,0,4.75,21.5ZM18,16.717A3.267,3.267,0,0,1,14.75,20v1.5a4.767,4.767,0,0,0,4.75-4.783ZM19.5,8.9a4.8,4.8,0,0,0-1.743-3.7L16.8,6.355A3.3,3.3,0,0,1,18,8.9Zm-18,0A3.3,3.3,0,0,1,2.7,6.355L1.743,5.2A4.8,4.8,0,0,0,0,8.9Zm13,11.85v-4H13v4Zm-9.5-4v4H6.5v-4ZM9.75,12A4.75,4.75,0,0,0,5,16.75H6.5A3.25,3.25,0,0,1,9.75,13.5Zm4.75,4.75A4.75,4.75,0,0,0,9.75,12v1.5A3.25,3.25,0,0,1,13,16.75Z" fill="#ffffff"/>
  </g>
</svg>
