<svg xmlns="http://www.w3.org/2000/svg" width="19.5" height="21.5" viewBox="0 0 19.5 21.5">
  <g id="icon_faqs" transform="translate(0 0)">
    <path id="Vector" d="M11.433,8.831l.631.406h0ZM7,7.75a.75.75,0,0,0,1.5,0Zm2,4.5a.75.75,0,0,0,1.5,0Zm1.5,2.5a.75.75,0,0,0-1.5,0Zm-1.5,1a.75.75,0,0,0,1.5,0ZM2.828,4.189l.382.645Zm0,13.121.382-.645h0Zm9,2.868-.382-.645h0Zm-4.157,0-.382.645h0Zm9-2.868.382.645h0Zm0-13.121-.382.645ZM11.828,1.321l-.382.645Zm-4.157,0L7.289.676ZM11,7.75a1.241,1.241,0,0,1-.2.675l1.261.812A2.741,2.741,0,0,0,12.5,7.75Zm-2.5,0A1.25,1.25,0,0,1,9.75,6.5V5A2.75,2.75,0,0,0,7,7.75ZM9.75,6.5A1.25,1.25,0,0,1,11,7.75h1.5A2.75,2.75,0,0,0,9.75,5ZM9,11.75v.5h1.5v-.5Zm1.8-3.325a7.592,7.592,0,0,1-.469.628c-.177.22-.386.473-.573.73A3.375,3.375,0,0,0,9,11.75h1.5a1.935,1.935,0,0,1,.474-1.084c.159-.219.334-.431.528-.672a9,9,0,0,0,.561-.757ZM9,14.75v1h1.5v-1ZM11.446,1.967l4.843,2.868.764-1.291L12.211.676ZM18,7.882v5.736h1.5V7.882Zm-1.711,8.783-4.843,2.868.764,1.291,4.843-2.868ZM8.054,19.533,3.211,16.665l-.764,1.291,4.843,2.868ZM1.5,13.618V7.882H0v5.736ZM3.211,4.835,8.054,1.967,7.289.676,2.446,3.544ZM1.5,7.882A3.535,3.535,0,0,1,3.211,4.835L2.446,3.544A5.035,5.035,0,0,0,0,7.882Zm1.711,8.783A3.535,3.535,0,0,1,1.5,13.618H0a5.035,5.035,0,0,0,2.446,4.338Zm8.236,2.868a3.317,3.317,0,0,1-3.393,0l-.764,1.291a4.817,4.817,0,0,0,4.921,0ZM18,13.618a3.535,3.535,0,0,1-1.711,3.047l.764,1.291A5.035,5.035,0,0,0,19.5,13.618ZM16.289,4.835A3.535,3.535,0,0,1,18,7.882h1.5a5.035,5.035,0,0,0-2.446-4.338ZM12.211.676a4.817,4.817,0,0,0-4.921,0l.764,1.291a3.317,3.317,0,0,1,3.393,0Z" fill="#ffffff"/>
  </g>
</svg>
