<svg xmlns="http://www.w3.org/2000/svg" width="20.363" height="20.363" viewBox="0 0 20.363 20.363">
  <g id="icon_offers" transform="translate(0 0)">
    <path id="Ellipse_676" data-name="Ellipse 676" d="M3.634,3.634a1.25,1.25,0,0,1-1.768,0L.805,4.695a2.75,2.75,0,0,0,3.889,0Zm-1.768,0a1.25,1.25,0,0,1,0-1.768L.805.805a2.75,2.75,0,0,0,0,3.889Zm0-1.768a1.25,1.25,0,0,1,1.768,0L4.695.805a2.75,2.75,0,0,0-3.889,0Zm1.768,0a1.25,1.25,0,0,1,0,1.768L4.695,4.695a2.75,2.75,0,0,0,0-3.889Z" transform="translate(11.181 3.681)" fill="#28303f"/>
    <path id="Rectangle_823" data-name="Rectangle 823" d="M15.643,1.038l-.053.748h0ZM19.324,4.72l.748-.053h0ZM1.91,14.21l-.53.53Zm.038-5.7.53.53Zm4.2,9.938.53-.53ZM19.6,8.684l-.748.053h0ZM8.514,1.949l-.53-.53ZM11.679.76l.053-.748Zm6.2,10.558-6.565,6.565,1.061,1.061,6.565-6.565Zm-11.2,6.6L2.441,13.679,1.38,14.74l4.243,4.243Zm-4.2-8.877L9.045,2.479,7.984,1.419,1.419,7.984Zm9.147-7.537,3.964.278L15.7.29,11.731.012Zm6.95,3.264.278,3.964,1.5-.105-.278-3.964ZM15.59,1.786a3.209,3.209,0,0,1,2.986,2.986l1.5-.105A4.709,4.709,0,0,0,15.7.29ZM2.441,13.679a3.278,3.278,0,0,1,.038-4.635L1.419,7.984A4.777,4.777,0,0,0,1.38,14.74Zm8.877,4.2a3.278,3.278,0,0,1-4.635.038L5.623,18.983a4.778,4.778,0,0,0,6.756-.038Zm7.626-5.5a4.827,4.827,0,0,0,1.407-3.747l-1.5.105a3.328,3.328,0,0,1-.971,2.582Zm-9.9-9.9a3.328,3.328,0,0,1,2.582-.971l.105-1.5A4.828,4.828,0,0,0,7.984,1.419Z" fill="#28303f"/>
  </g>
</svg>
