<svg xmlns="http://www.w3.org/2000/svg" width="189.797" height="37.699" viewBox="0 0 189.797 37.699">
  <g id="logo" transform="translate(-33.102 -30.549)">
    <g id="Group_2" data-name="Group 2" transform="translate(33.102 30.549)">
      <g id="Group_1" data-name="Group 1">
        <path id="Path_1" data-name="Path 1" d="M243.057,505.4a3.092,3.092,0,0,1-.406-.024,3.481,3.481,0,0,1-2.561-1.631,14.794,14.794,0,0,0-24.638-.811,3.488,3.488,0,0,1-5.315.454l-9.054-9.054a3.488,3.488,0,0,1,0-4.932l18.049-18.049a12.385,12.385,0,0,1,8.815-3.652h0a12.389,12.389,0,0,1,8.817,3.655l18.427,18.436a3.486,3.486,0,0,1,0,4.934l-9.667,9.654A3.492,3.492,0,0,1,243.057,505.4Zm-15.57-15.652a21.639,21.639,0,0,1,15.916,6.89l4.389-4.382-15.962-15.969a5.446,5.446,0,0,0-3.883-1.609h0a5.454,5.454,0,0,0-3.883,1.608L208.48,491.869l3.941,3.94A21.759,21.759,0,0,1,227.487,489.749Z" transform="translate(-200.061 -467.702)" fill="#03d2da"/>
      </g>
    </g>
    <g id="Group_3" data-name="Group 3" transform="translate(95.277 37.937)">
      <path id="Path_2" data-name="Path 2" d="M255.021,489.087H244.587l-2.055,4.829h-3.995l9.39-20.867h3.815l9.421,20.867h-4.056Zm-1.281-3.041-3.935-9.122-3.9,9.122Z" transform="translate(-238.537 -471.797)" fill="#242424"/>
      <path id="Path_3" data-name="Path 3" d="M280.584,482.976V492.1h-3.726v-8.645c0-2.831-1.312-4.2-3.578-4.2-2.445,0-4.143,1.609-4.143,4.77V492.1H265.41v-8.645c0-2.831-1.312-4.2-3.578-4.2-2.474,0-4.143,1.609-4.143,4.77V492.1h-3.726V476.179h3.547v2.028A6.594,6.594,0,0,1,262.728,476a5.965,5.965,0,0,1,5.365,2.655A7.429,7.429,0,0,1,274.054,476C277.9,476,280.584,478.177,280.584,482.976Z" transform="translate(-229.035 -469.979)" fill="#242424"/>
      <path id="Path_4" data-name="Path 4" d="M289.075,482.976V492.1h-3.728v-8.645c0-2.831-1.4-4.2-3.786-4.2-2.652,0-4.442,1.609-4.442,4.8V492.1h-3.725V476.179h3.547v2.057A6.922,6.922,0,0,1,282.426,476C286.242,476,289.075,478.177,289.075,482.976Z" transform="translate(-217.067 -469.979)" fill="#242424"/>
      <path id="Path_5" data-name="Path 5" d="M299.791,482.768V492.1h-3.516v-1.938c-.9,1.372-2.624,2.146-5.009,2.146-3.636,0-5.932-2-5.932-4.769,0-2.653,1.789-4.74,6.619-4.74h4.114v-.239c0-2.177-1.312-3.458-3.966-3.458a7.885,7.885,0,0,0-4.83,1.58l-1.461-2.713A11.194,11.194,0,0,1,292.548,476C297.139,476,299.791,478.177,299.791,482.768Zm-3.725,4.353v-1.849H292.22c-2.535,0-3.219.953-3.219,2.117,0,1.341,1.133,2.206,3.04,2.206A4.062,4.062,0,0,0,296.066,487.121Z" transform="translate(-209.713 -469.979)" fill="#242424"/>
      <path id="Path_6" data-name="Path 6" d="M313.419,472.274v22.119h-3.578v-2.057a6.565,6.565,0,0,1-5.278,2.266,8.154,8.154,0,0,1,0-16.307,6.521,6.521,0,0,1,5.129,2.148v-8.169Zm-3.668,14.161a4.745,4.745,0,1,0-4.74,4.979A4.651,4.651,0,0,0,309.751,486.435Z" transform="translate(-202.825 -472.274)" fill="#242424"/>
      <path id="Path_7" data-name="Path 7" d="M308.879,490.519l1.43-2.833a10.708,10.708,0,0,0,5.544,1.58c2.354,0,3.34-.656,3.34-1.758,0-3.041-9.838-.179-9.838-6.528,0-3.012,2.713-4.98,7.005-4.98a12.667,12.667,0,0,1,5.961,1.372l-1.43,2.833a8.7,8.7,0,0,0-4.562-1.193c-2.264,0-3.337.745-3.337,1.789,0,3.219,9.838.357,9.838,6.588,0,2.981-2.744,4.917-7.215,4.917A12.647,12.647,0,0,1,308.879,490.519Z" transform="translate(-195.21 -469.979)" fill="#242424"/>
    </g>
    <g id="Group_4" data-name="Group 4" transform="translate(34.628 31.247)">
      <path id="Path_8" data-name="Path 8" d="M208.317,471.768a3.655,3.655,0,1,1-3.646-3.634A3.565,3.565,0,0,1,208.317,471.768Zm-.6,0a2.979,2.979,0,0,0-3.044-3.065,3.087,3.087,0,1,0,3.044,3.065Zm-1.988.663.911,1.4h-.892l-.806-1.243h-.923v1.243h-.89v-4.08h1.7c1.078,0,1.721.557,1.721,1.419A1.27,1.27,0,0,1,205.728,472.431Zm-.953-.538c.58,0,.911-.27.911-.724s-.331-.716-.911-.716h-.766v1.44Z" transform="translate(-201.006 -468.134)"/>
    </g>
  </g>
</svg>
