<svg xmlns="http://www.w3.org/2000/svg" width="17.086" height="20.035" viewBox="0 0 17.086 20.035">
  <g id="out" transform="translate(0 0)">
    <path id="Vector_773" data-name="Vector 773" d="M.22,4.22A.75.75,0,0,0,1.28,5.28ZM1.28.22A.75.75,0,0,0,.22,1.28Zm0,5.061L2.573,3.987,1.513,2.927.22,4.22ZM2.573,1.513,1.28.22.22,1.28,1.513,2.573Zm0,2.475a1.75,1.75,0,0,0,0-2.475L1.513,2.573a.25.25,0,0,1,0,.354Z" transform="translate(14 7.001)" fill="#28303f"/>
    <path id="Vector" d="M15.75,10.5a.75.75,0,0,0,0-1.5ZM9.75,9a.75.75,0,1,0,0,1.5ZM0,15.018a.75.75,0,0,0,1.5,0Zm13.5,0a.75.75,0,1,0-1.5,0Zm-1.5-10a.75.75,0,0,0,1.5,0Zm-10.5,0a.75.75,0,0,0-1.5,0Zm.141,12.594.416-.624h0Zm2,1.333-.416.624h0Zm0-17.854L3.225.466h0Zm-2,1.333L1.225,1.8ZM6.75,2.268a.75.75,0,0,0,0,1.5Zm0,14a.75.75,0,0,0,0,1.5ZM15.75,9h-6v1.5h6ZM1.5,15.018v-10H0v10Zm10.5,0a1.25,1.25,0,0,1-1.25,1.25v1.5a2.75,2.75,0,0,0,2.75-2.75ZM10.75,3.768A1.25,1.25,0,0,1,12,5.018h1.5a2.75,2.75,0,0,0-2.75-2.75Zm-8.693-.72,2-1.333L3.225.466l-2,1.333ZM6,2.755V17.281H7.5V2.755ZM4.057,18.321l-2-1.333-.832,1.248,2,1.333ZM1.5,15.947V4.088H0V15.947Zm.557,1.04a1.25,1.25,0,0,1-.557-1.04H0a2.75,2.75,0,0,0,1.225,2.288ZM6,17.281a1.25,1.25,0,0,1-1.943,1.04l-.832,1.248A2.75,2.75,0,0,0,7.5,17.281ZM4.057,1.715A1.25,1.25,0,0,1,6,2.755H7.5A2.75,2.75,0,0,0,3.225.466ZM1.225,1.8A2.75,2.75,0,0,0,0,4.088H1.5a1.25,1.25,0,0,1,.557-1.04ZM6.75,3.768h4v-1.5h-4Zm4,12.5h-4v1.5h4Z" fill="#28303f"/>
  </g>
</svg>
