<svg id="pass_icon" xmlns="http://www.w3.org/2000/svg" width="17.5" height="21.5" viewBox="0 0 17.5 21.5">
  <path id="Vector" d="M8,14.75a.75.75,0,0,0,1.5,0Zm1.5-2a.75.75,0,0,0-1.5,0Zm3.25-8h0ZM4.636,2.374a.75.75,0,0,0,1.3.751ZM9.5,14.75v-2H8v2ZM4.75,7.5h8V6h-8ZM16,10.75v6h1.5v-6ZM12.75,20h-8v1.5h8ZM1.5,16.75v-6H0v6ZM4.75,20A3.25,3.25,0,0,1,1.5,16.75H0A4.75,4.75,0,0,0,4.75,21.5ZM16,16.75A3.25,3.25,0,0,1,12.75,20v1.5a4.75,4.75,0,0,0,4.75-4.75ZM12.75,7.5A3.25,3.25,0,0,1,16,10.75h1.5A4.75,4.75,0,0,0,12.75,6ZM4.75,6A4.75,4.75,0,0,0,0,10.75H1.5A3.25,3.25,0,0,1,4.75,7.5ZM12,4.75v2h1.5v-2ZM8.75,1.5A3.25,3.25,0,0,1,12,4.75h1.5A4.75,4.75,0,0,0,8.75,0ZM5.934,3.126A3.248,3.248,0,0,1,8.75,1.5V0A4.748,4.748,0,0,0,4.636,2.374Z" fill="#28303f"/>
</svg>
