<svg xmlns="http://www.w3.org/2000/svg" width="48" height="48" viewBox="0 0 48 48">
  <g id="paypal" transform="translate(-720 -331)">
    <rect id="Rectangle_7" data-name="Rectangle 7" width="48" height="48" transform="translate(720 331)" fill="#fff"/>
    <g id="logo-paypal" transform="translate(728.057 340.561)">
      <path id="Path_14110" data-name="Path 14110" d="M18.03,11.3h8.146c4.373,0,6.02,2.214,5.766,5.472-.419,5.371-3.666,8.34-7.973,8.34H21.794c-.59,0-.987.39-1.148,1.451l-.933,6.157c-.061.4-.271.635-.587.663H14.019c-.481,0-.652-.368-.526-1.164l3.119-19.75A1.245,1.245,0,0,1,18.03,11.3Z" transform="translate(-3.856 -4.5)" fill="#009de2" fill-rule="evenodd"/>
      <path id="Path_14111" data-name="Path 14111" d="M9.082,0h8.154c2.3,0,5.02.075,6.843,1.682A5.52,5.52,0,0,1,25.787,6.3c-.5,6.226-4.224,9.714-9.219,9.714H12.547c-.684,0-1.138.454-1.331,1.682l-1.122,7.139c-.073.463-.274.736-.64.769H4.43c-.557,0-.756-.426-.61-1.35l3.617-22.9A1.444,1.444,0,0,1,9.082,0Z" fill="#113984" fill-rule="evenodd"/>
      <path id="Path_14112" data-name="Path 14112" d="M16.337,21.478l1.424-9.013A1.245,1.245,0,0,1,19.179,11.3h8.146a7.955,7.955,0,0,1,3.292.6c-.819,5.541-4.4,8.62-9.1,8.62H17.5C16.97,20.516,16.574,20.786,16.337,21.478Z" transform="translate(-5.004 -4.5)" fill="#172c70" fill-rule="evenodd"/>
    </g>
  </g>
</svg>
