<svg xmlns="http://www.w3.org/2000/svg" width="48" height="48" viewBox="0 0 48 48">
  <g id="stc" transform="translate(-720 -331)">
    <rect id="Rectangle_7" data-name="Rectangle 7" width="48" height="48" transform="translate(720 331)" fill="#502c84"/>
    <g id="_366497_1_" data-name="366497 (1)" transform="translate(697 160.448)">
      <path id="Path_14105" data-name="Path 14105" d="M322.862,221.386v-4.97h.843v.4a1.36,1.36,0,0,1,1.108-.495,1.9,1.9,0,0,1,0,3.779,1.361,1.361,0,0,1-1.108-.5v1.791h-.843Zm.843-3.642v.916a1.043,1.043,0,0,0,.962.641c.559,0,.934-.417.934-1.1s-.376-1.09-.934-1.09a1.032,1.032,0,0,0-.962.637" transform="translate(-271.107 -24.59)" fill="#02aa7c"/>
      <path id="Path_14106" data-name="Path 14106" d="M381.415,220.17a1.059,1.059,0,0,1,1-1.1l1.434-.183V218.7a.288.288,0,0,0-.311-.33h-1.8v-.765h1.832c.728,0,1.127.357,1.127.989v2.588h-.852v-.435a1.38,1.38,0,0,1-1.182.545,1.129,1.129,0,0,1-1.246-1.127m1.452.44a1.049,1.049,0,0,0,.976-.6v-.449l-1.095.151c-.3.041-.472.2-.472.463,0,.279.215.435.591.435" transform="translate(-325.497 -25.787)" fill="#02aa7c"/>
      <path id="Path_14107" data-name="Path 14107" d="M434.073,221.818h.614a.389.389,0,0,0,.417-.316l.11-.316-1.3-3.577h.88l.811,2.492h.018l.774-2.492h.866l-1.425,4.109c-.192.563-.449.866-1.076.866h-.687v-.765Z" transform="translate(-374.261 -25.786)" fill="#02aa7c"/>
      <path id="Path_14108" data-name="Path 14108" d="M34.092,199.256a3.283,3.283,0,0,0,2.318-.82,2.125,2.125,0,0,0,.632-1.539,1.993,1.993,0,0,0-.586-1.434,3.064,3.064,0,0,0-1.612-.792l-1.127-.22c-.467-.087-.733-.321-.733-.646,0-.426.412-.719,1.072-.719a1.391,1.391,0,0,1,1,.366,1.109,1.109,0,0,1,.279.6l1.626-.366a2.008,2.008,0,0,0-.6-1.218,3.285,3.285,0,0,0-2.322-.861,3.178,3.178,0,0,0-2.157.76,2.14,2.14,0,0,0-.687,1.585,1.823,1.823,0,0,0,.527,1.347,3.21,3.21,0,0,0,1.539.779l1.113.266c.559.133.806.339.806.705,0,.453-.412.719-1.086.719a1.508,1.508,0,0,1-1.127-.426,1.023,1.023,0,0,1-.293-.673L31,197.035a2.091,2.091,0,0,0,.632,1.292,3.392,3.392,0,0,0,2.46.93m12.377,0a3.477,3.477,0,0,0,2.492-.953,3.258,3.258,0,0,0,.88-1.48l-1.713-.573a1.627,1.627,0,0,1-.453.76,1.666,1.666,0,0,1-1.2.453,1.854,1.854,0,0,1-1.305-.527,2.125,2.125,0,0,1-.545-1.512,2.1,2.1,0,0,1,.545-1.512,1.783,1.783,0,0,1,1.292-.513,1.554,1.554,0,0,1,1.159.44,1.866,1.866,0,0,1,.44.779l1.745-.586a3.336,3.336,0,0,0-.82-1.452,3.569,3.569,0,0,0-2.565-.98,3.7,3.7,0,0,0-2.652,1.072,4.008,4.008,0,0,0,.028,5.515,3.745,3.745,0,0,0,2.68,1.067m-5.923,0a2.45,2.45,0,0,0,1.539-.44v-1.585a1.693,1.693,0,0,1-.985.293.822.822,0,0,1-.953-.966v-6.711H38.21v1.979H42.08V193.7H38.21v3.33a2.24,2.24,0,0,0,.573,1.6,2.453,2.453,0,0,0,1.763.623" fill="#fff"/>
    </g>
  </g>
</svg>
