<svg id="zoom" xmlns="http://www.w3.org/2000/svg" width="21.5" height="21.5" viewBox="0 0 21.5 21.5">
  <path id="Vector" d="M20.22,21.28A.75.75,0,1,0,21.28,20.22ZM19.28,18.22A.75.75,0,1,0,18.22,19.28ZM1.5,10.25A8.75,8.75,0,0,1,10.25,1.5V0A10.25,10.25,0,0,0,0,10.25ZM10.25,1.5A8.75,8.75,0,0,1,19,10.25h1.5A10.25,10.25,0,0,0,10.25,0ZM19,10.25A8.75,8.75,0,0,1,10.25,19v1.5A10.25,10.25,0,0,0,20.5,10.25ZM10.25,19A8.75,8.75,0,0,1,1.5,10.25H0A10.25,10.25,0,0,0,10.25,20.5Zm11.03,1.22-2-2L18.22,19.28l2,2Z" fill="#28303f"/>
</svg>
